<mxfile host="65bd71144e">
    <diagram name="PÃ¡gina-1" id="6KFCMT0JHRyO18xF1dcZ">
        <mxGraphModel dx="1107" dy="798" grid="1" gridSize="10" guides="1" tooltips="1" connect="1" arrows="1" fold="1" page="1" pageScale="1" pageWidth="827" pageHeight="1169" math="0" shadow="0">
            <root>
                <mxCell id="0"/>
                <mxCell id="1" parent="0"/>
                <mxCell id="QeYEdLiZhutaxxuEx-Q1-33" style="edgeStyle=orthogonalEdgeStyle;rounded=0;orthogonalLoop=1;jettySize=auto;html=1;exitX=0;exitY=0.75;exitDx=0;exitDy=0;entryX=0.75;entryY=0;entryDx=0;entryDy=0;entryPerimeter=0;" parent="1" source="QeYEdLiZhutaxxuEx-Q1-2" target="QeYEdLiZhutaxxuEx-Q1-5" edge="1">
                    <mxGeometry relative="1" as="geometry"/>
                </mxCell>
                <mxCell id="QeYEdLiZhutaxxuEx-Q1-34" value="&lt;font style=&quot;font-size: 12px;&quot;&gt;Return Repos if exists&lt;/font&gt;" style="edgeLabel;html=1;align=center;verticalAlign=middle;resizable=0;points=[];" parent="QeYEdLiZhutaxxuEx-Q1-33" vertex="1" connectable="0">
                    <mxGeometry x="0.0526" y="1" relative="1" as="geometry">
                        <mxPoint x="35" as="offset"/>
                    </mxGeometry>
                </mxCell>
                <mxCell id="QeYEdLiZhutaxxuEx-Q1-2" value="" style="image;html=1;image=img/lib/clip_art/computers/Database_128x128.png" parent="1" vertex="1">
                    <mxGeometry x="636" y="210" width="80" height="80" as="geometry"/>
                </mxCell>
                <mxCell id="QeYEdLiZhutaxxuEx-Q1-10" style="edgeStyle=orthogonalEdgeStyle;rounded=0;orthogonalLoop=1;jettySize=auto;html=1;" parent="1" source="QeYEdLiZhutaxxuEx-Q1-4" target="QeYEdLiZhutaxxuEx-Q1-5" edge="1">
                    <mxGeometry relative="1" as="geometry"/>
                </mxCell>
                <mxCell id="QeYEdLiZhutaxxuEx-Q1-45" style="edgeStyle=orthogonalEdgeStyle;rounded=0;orthogonalLoop=1;jettySize=auto;html=1;exitX=0.75;exitY=1;exitDx=0;exitDy=0;exitPerimeter=0;" parent="1" source="QeYEdLiZhutaxxuEx-Q1-4" target="QeYEdLiZhutaxxuEx-Q1-6" edge="1">
                    <mxGeometry relative="1" as="geometry">
                        <Array as="points">
                            <mxPoint x="166" y="458"/>
                        </Array>
                    </mxGeometry>
                </mxCell>
                <mxCell id="QeYEdLiZhutaxxuEx-Q1-4" value="" style="sketch=0;points=[[0,0,0],[0.25,0,0],[0.5,0,0],[0.75,0,0],[1,0,0],[0,1,0],[0.25,1,0],[0.5,1,0],[0.75,1,0],[1,1,0],[0,0.25,0],[0,0.5,0],[0,0.75,0],[1,0.25,0],[1,0.5,0],[1,0.75,0]];outlineConnect=0;fontColor=#232F3E;gradientColor=#FF4F8B;gradientDirection=north;fillColor=#BC1356;strokeColor=#ffffff;dashed=0;verticalLabelPosition=bottom;verticalAlign=top;align=center;html=1;fontSize=12;fontStyle=0;aspect=fixed;shape=mxgraph.aws4.resourceIcon;resIcon=mxgraph.aws4.api_gateway;" parent="1" vertex="1">
                    <mxGeometry x="126" y="380" width="78" height="78" as="geometry"/>
                </mxCell>
                <mxCell id="QeYEdLiZhutaxxuEx-Q1-31" style="edgeStyle=orthogonalEdgeStyle;rounded=0;orthogonalLoop=1;jettySize=auto;html=1;" parent="1" source="QeYEdLiZhutaxxuEx-Q1-5" target="QeYEdLiZhutaxxuEx-Q1-2" edge="1">
                    <mxGeometry relative="1" as="geometry">
                        <Array as="points">
                            <mxPoint x="375" y="250"/>
                        </Array>
                    </mxGeometry>
                </mxCell>
                <mxCell id="QeYEdLiZhutaxxuEx-Q1-32" value="&lt;font style=&quot;font-size: 12px;&quot;&gt;Get Repos By Languages&lt;/font&gt;" style="edgeLabel;html=1;align=center;verticalAlign=middle;resizable=0;points=[];" parent="QeYEdLiZhutaxxuEx-Q1-31" vertex="1" connectable="0">
                    <mxGeometry x="-0.1049" y="2" relative="1" as="geometry">
                        <mxPoint x="56" y="2" as="offset"/>
                    </mxGeometry>
                </mxCell>
                <mxCell id="QeYEdLiZhutaxxuEx-Q1-35" style="edgeStyle=orthogonalEdgeStyle;rounded=0;orthogonalLoop=1;jettySize=auto;html=1;" parent="1" source="QeYEdLiZhutaxxuEx-Q1-5" target="QeYEdLiZhutaxxuEx-Q1-8" edge="1">
                    <mxGeometry relative="1" as="geometry"/>
                </mxCell>
                <mxCell id="QeYEdLiZhutaxxuEx-Q1-36" value="&lt;font style=&quot;font-size: 12px;&quot;&gt;Get Repo by llangauages&lt;/font&gt;" style="edgeLabel;html=1;align=center;verticalAlign=middle;resizable=0;points=[];" parent="QeYEdLiZhutaxxuEx-Q1-35" vertex="1" connectable="0">
                    <mxGeometry x="-0.4768" y="1" relative="1" as="geometry">
                        <mxPoint x="26" as="offset"/>
                    </mxGeometry>
                </mxCell>
                <mxCell id="QeYEdLiZhutaxxuEx-Q1-39" style="edgeStyle=orthogonalEdgeStyle;rounded=0;orthogonalLoop=1;jettySize=auto;html=1;exitX=1;exitY=0.25;exitDx=0;exitDy=0;exitPerimeter=0;entryX=0.5;entryY=1;entryDx=0;entryDy=0;" parent="1" source="QeYEdLiZhutaxxuEx-Q1-5" target="QeYEdLiZhutaxxuEx-Q1-2" edge="1">
                    <mxGeometry relative="1" as="geometry">
                        <Array as="points">
                            <mxPoint x="414" y="390"/>
                            <mxPoint x="676" y="390"/>
                        </Array>
                    </mxGeometry>
                </mxCell>
                <mxCell id="QeYEdLiZhutaxxuEx-Q1-40" value="&lt;font style=&quot;font-size: 12px;&quot;&gt;Store Dif Repos&lt;/font&gt;" style="edgeLabel;html=1;align=center;verticalAlign=middle;resizable=0;points=[];" parent="QeYEdLiZhutaxxuEx-Q1-39" vertex="1" connectable="0">
                    <mxGeometry x="-0.3567" y="-1" relative="1" as="geometry">
                        <mxPoint x="1" as="offset"/>
                    </mxGeometry>
                </mxCell>
                <mxCell id="QeYEdLiZhutaxxuEx-Q1-43" style="edgeStyle=orthogonalEdgeStyle;rounded=0;orthogonalLoop=1;jettySize=auto;html=1;exitX=0;exitY=0.75;exitDx=0;exitDy=0;exitPerimeter=0;entryX=1;entryY=0.75;entryDx=0;entryDy=0;entryPerimeter=0;" parent="1" source="QeYEdLiZhutaxxuEx-Q1-5" target="QeYEdLiZhutaxxuEx-Q1-4" edge="1">
                    <mxGeometry relative="1" as="geometry"/>
                </mxCell>
                <mxCell id="QeYEdLiZhutaxxuEx-Q1-5" value="" style="sketch=0;points=[[0,0,0],[0.25,0,0],[0.5,0,0],[0.75,0,0],[1,0,0],[0,1,0],[0.25,1,0],[0.5,1,0],[0.75,1,0],[1,1,0],[0,0.25,0],[0,0.5,0],[0,0.75,0],[1,0.25,0],[1,0.5,0],[1,0.75,0]];outlineConnect=0;fontColor=#232F3E;gradientColor=#F78E04;gradientDirection=north;fillColor=#D05C17;strokeColor=#ffffff;dashed=0;verticalLabelPosition=bottom;verticalAlign=top;align=center;html=1;fontSize=12;fontStyle=0;aspect=fixed;shape=mxgraph.aws4.resourceIcon;resIcon=mxgraph.aws4.lambda;" parent="1" vertex="1">
                    <mxGeometry x="336" y="380" width="78" height="78" as="geometry"/>
                </mxCell>
                <mxCell id="QeYEdLiZhutaxxuEx-Q1-9" style="edgeStyle=orthogonalEdgeStyle;rounded=0;orthogonalLoop=1;jettySize=auto;html=1;" parent="1" source="QeYEdLiZhutaxxuEx-Q1-6" target="QeYEdLiZhutaxxuEx-Q1-4" edge="1">
                    <mxGeometry relative="1" as="geometry">
                        <Array as="points">
                            <mxPoint x="156" y="520"/>
                            <mxPoint x="156" y="520"/>
                        </Array>
                    </mxGeometry>
                </mxCell>
                <mxCell id="QeYEdLiZhutaxxuEx-Q1-6" value="" style="image;aspect=fixed;perimeter=ellipsePerimeter;html=1;align=center;shadow=0;dashed=0;fontColor=#4277BB;labelBackgroundColor=default;fontSize=12;spacingTop=3;image=img/lib/ibm/users/browser.svg;" parent="1" vertex="1">
                    <mxGeometry x="135" y="590" width="60" height="60" as="geometry"/>
                </mxCell>
                <mxCell id="QeYEdLiZhutaxxuEx-Q1-37" style="edgeStyle=orthogonalEdgeStyle;rounded=0;orthogonalLoop=1;jettySize=auto;html=1;" parent="1" source="QeYEdLiZhutaxxuEx-Q1-8" edge="1">
                    <mxGeometry relative="1" as="geometry">
                        <mxPoint x="376" y="460" as="targetPoint"/>
                    </mxGeometry>
                </mxCell>
                <mxCell id="QeYEdLiZhutaxxuEx-Q1-38" value="&lt;font style=&quot;font-size: 12px;&quot;&gt;Response Repos&lt;/font&gt;" style="edgeLabel;html=1;align=center;verticalAlign=middle;resizable=0;points=[];" parent="QeYEdLiZhutaxxuEx-Q1-37" vertex="1" connectable="0">
                    <mxGeometry x="0.0296" y="2" relative="1" as="geometry">
                        <mxPoint x="22" y="-2" as="offset"/>
                    </mxGeometry>
                </mxCell>
                <mxCell id="QeYEdLiZhutaxxuEx-Q1-8" value="" style="dashed=0;outlineConnect=0;html=1;align=center;labelPosition=center;verticalLabelPosition=bottom;verticalAlign=top;shape=mxgraph.weblogos.github" parent="1" vertex="1">
                    <mxGeometry x="616" y="470" width="75" height="75" as="geometry"/>
                </mxCell>
                <mxCell id="QeYEdLiZhutaxxuEx-Q1-13" value="Github Api" style="text;html=1;align=center;verticalAlign=middle;resizable=0;points=[];autosize=1;strokeColor=none;fillColor=none;" parent="1" vertex="1">
                    <mxGeometry x="613.5" y="555" width="80" height="30" as="geometry"/>
                </mxCell>
                <mxCell id="QeYEdLiZhutaxxuEx-Q1-14" value="Mongo&lt;br&gt;&amp;nbsp;Instance" style="text;html=1;align=center;verticalAlign=middle;resizable=0;points=[];autosize=1;strokeColor=none;fillColor=none;" parent="1" vertex="1">
                    <mxGeometry x="636" y="160" width="70" height="40" as="geometry"/>
                </mxCell>
                <mxCell id="QeYEdLiZhutaxxuEx-Q1-41" value="API Gateway" style="text;html=1;align=center;verticalAlign=middle;resizable=0;points=[];autosize=1;strokeColor=none;fillColor=none;" parent="1" vertex="1">
                    <mxGeometry x="120" y="345" width="90" height="30" as="geometry"/>
                </mxCell>
                <mxCell id="QeYEdLiZhutaxxuEx-Q1-42" value="UI" style="text;html=1;align=center;verticalAlign=middle;resizable=0;points=[];autosize=1;strokeColor=none;fillColor=none;" parent="1" vertex="1">
                    <mxGeometry x="145" y="650" width="40" height="30" as="geometry"/>
                </mxCell>
            </root>
        </mxGraphModel>
    </diagram>
</mxfile>